# File created by Blade
# Date/Time:  Mon Nov 18 18:33:23 2013
# Frame Rate: 100.000 fps
#------------------------------------------------------
:FULLY-SPECIFIED
:DEGREES
1
root 53.004747 0.080353 51.489386 -6.211239 4.321362 -128.638482
Spine 6.813720 -1.109777 -0.810746
Spine1 1.847064 1.153543 -1.770307
Spine2 0.552572 -2.718958 -2.012278
NeckDummy 0.002686 -0.009161 -0.012352 -0.768072 1.748506 -0.788828
Neck 24.511722 5.409191 29.533659
Head -0.284893 0.409666 0.115762 -32.889402 -3.772646 -0.562560
LeftShoulderDummy -0.069142 -0.014222 0.012445 -0.729646 1.607123 -0.586570
LeftShoulder 11.497594 -3.876129 18.701713
LeftArm -1.674548 43.209644 13.814126
LeftForeArm 92.695896
LeftForeArmRoll -29.203437
LeftHand -9.059156 2.667466 -2.883891
LeftHandThumb1 15.987928 12.435984
LeftHandIndex1 15.979337 40.374668
LeftHandPinky1 13.588429 45.978028
RightShoulderDummy -0.025945 0.014022 0.053354 -0.785460 -1.776293 0.875448
RightShoulder 7.863876 3.866645 21.733926
RightArm -53.669031 50.069342 -2.253038
RightForeArm 116.529302
RightForeArmRoll 8.323965
RightHand -17.380215 -16.349193 12.576903
RightHandThumb1 -1.274507 13.641557
RightHandIndex1 13.829072 59.637116
RightHandPinky1 19.462826 68.856830
LeftUpLeg 12.676186 11.896446 -8.677555
LeftLeg 31.010549
LeftFoot 0.464203 -0.620305 -0.266317 -11.980408 13.947891 -8.062637
LeftToeBase -1.718163
RightUpLeg 11.026186 11.533948 -7.656307
RightLeg 36.649163
RightFoot -0.363319 0.227420 0.091935 -0.854677 5.069625 -23.642795
RightToeBase -0.761831
2
root 52.930399 0.089199 51.562296 -6.190407 4.427485 -128.737599
Spine 6.824667 -1.181126 -0.795429
Spine1 1.867452 1.119671 -1.738433
Spine2 0.573288 -2.715580 -1.970336
NeckDummy 0.002539 -0.011580 -0.012734 -0.741414 1.718540 -0.784157
Neck 24.437902 5.326281 29.638184
Head -0.287603 0.408253 0.114760 -32.841766 -3.821712 -0.563442
LeftShoulderDummy -0.068990 -0.016536 0.011653 -0.703125 1.576667 -0.582611
LeftShoulder 11.621286 -3.916192 18.720254
LeftArm -1.513229 43.149877 13.803264
LeftForeArm 92.686267
LeftForeArmRoll -29.090353
LeftHand -9.012881 2.543476 -2.961199
LeftHandThumb1 15.986951 12.570666
LeftHandIndex1 16.098568 40.598989
LeftHandPinky1 13.696076 46.100710
RightShoulderDummy -0.025909 0.011509 0.051124 -0.759305 -1.746027 0.871471
RightShoulder 7.816905 3.840595 21.707790
RightArm -53.557597 50.165334 -2.037101
RightForeArm 116.438114
RightForeArmRoll 8.217302
RightHand -17.391321 -16.543956 12.504066
RightHandThumb1 -1.418235 13.923663
RightHandIndex1 13.893268 59.862323
RightHandPinky1 19.561763 69.039828
LeftUpLeg 12.989953 11.738376 -8.510668
LeftLeg 30.867636
LeftFoot 0.420855 -0.615939 -0.269998 -11.450255 13.675673 -8.004847
LeftToeBase -2.317441
RightUpLeg 11.094998 11.848291 -7.646460
RightLeg 36.570506
RightFoot -0.372423 0.234575 0.099627 -1.090615 4.827814 -23.641749
RightToeBase -0.773908
3
root 52.865173 0.097776 51.636303 -6.118483 4.504785 -128.856734
Spine 6.823823 -1.236492 -0.758690
Spine1 1.885439 1.099412 -1.661012
Spine2 0.563183 -2.656792 -2.111715
NeckDummy 0.003248 -0.009683 -0.012711 -0.742006 1.815990 -0.784323
Neck 24.417186 5.182105 29.722385
Head -0.287906 0.403913 0.115911 -32.799149 -3.857557 -0.581750
LeftShoulderDummy -0.068149 -0.014537 0.009500 -0.704253 1.675306 -0.583329
LeftShoulder 11.592572 -4.007371 18.764540
LeftArm -1.567315 43.087730 13.656388
LeftForeArm 92.622874
LeftForeArmRoll -28.887797
LeftHand -9.060675 2.630475 -2.915739
LeftHandThumb1 15.876179 12.493310
LeftHandIndex1 16.192716 40.831257
LeftHandPinky1 13.701194 45.953817
RightShoulderDummy -0.024666 0.013440 0.052806 -0.760536 -1.843007 0.872977
RightShoulder 7.757597 3.871843 21.707820
RightArm -53.504069 50.261798 -1.859757
RightForeArm 116.312557
RightForeArmRoll 8.298991
RightHand -17.510507 -16.383082 12.645834
RightHandThumb1 -1.272979 13.704539
RightHandIndex1 13.731058 59.634474
RightHandPinky1 19.391282 68.930485
LeftUpLeg 13.402142 11.639568 -8.449910
LeftLeg 30.795032
LeftFoot 0.415939 -0.602145 -0.268477 -12.064177 13.512226 -8.237603
LeftToeBase -1.768999
RightUpLeg 11.031076 12.081145 -7.731600
RightLeg 36.553691
RightFoot -0.380860 0.236533 0.096945 -1.262380 4.773977 -23.624837
RightToeBase -0.691866
4
root 52.798688 0.110495 51.705094 -6.074771 4.548963 -128.921212
Spine 6.809863 -1.241873 -0.759660
Spine1 1.889674 1.091793 -1.653413
Spine2 0.602696 -2.689865 -2.063698
NeckDummy 0.003139 -0.010596 -0.013897 -0.742948 1.784974 -0.791819
Neck 24.392114 5.141462 29.821026
Head -0.289312 0.400825 0.116211 -32.827310 -3.833325 -0.586923
LeftShoulderDummy -0.067930 -0.015240 0.009191 -0.704823 1.644628 -0.593184
LeftShoulder 11.630201 -4.002604 18.785957
LeftArm -1.488172 43.035381 13.651732
LeftForeArm 92.542226
LeftForeArmRoll -28.786160
LeftHand -9.000980 2.516586 -2.911709
LeftHandThumb1 15.679695 12.445028
LeftHandIndex1 16.195519 40.960603
LeftHandPinky1 13.774299 46.083569
RightShoulderDummy -0.024903 0.012839 0.051287 -0.761091 -1.813041 0.881307
RightShoulder 7.726073 3.838767 21.648738
RightArm -53.465078 50.350749 -1.776471
RightForeArm 116.198435
RightForeArmRoll 7.915568
RightHand -17.422446 -16.488265 12.732202
RightHandThumb1 -1.277378 13.600192
RightHandIndex1 13.818520 59.544245
RightHandPinky1 19.194068 69.214390
LeftUpLeg 13.977146 11.607766 -8.391080
LeftLeg 30.754467
LeftFoot 0.409897 -0.602213 -0.276164 -12.082071 13.045519 -8.364593
LeftToeBase -1.824310
RightUpLeg 11.019653 12.267442 -7.736749
RightLeg 36.451962
RightFoot -0.391041 0.242251 0.098305 -1.358954 4.687713 -23.557933
RightToeBase -0.670062
5
root 52.732324 0.122490 51.771464 -6.056450 4.595083 -128.981466
Spine 6.831023 -1.253735 -0.748763
Spine1 1.890784 1.088437 -1.630852
Spine2 0.615599 -2.737304 -1.951515
NeckDummy 0.002399 -0.013029 -0.013989 -0.734877 1.707039 -0.784698
Neck 24.397928 5.152149 29.905281
Head -0.290717 0.404204 0.118782 -32.875409 -3.874334 -0.615440
LeftShoulderDummy -0.069175 -0.017799 0.010051 -0.697392 1.566141 -0.583568
LeftShoulder 11.491300 -3.906832 18.725653
LeftArm -1.653044 43.129295 13.444445
LeftForeArm 92.474313
LeftForeArmRoll -28.644184
LeftHand -8.946644 2.555524 -2.881177
LeftHandThumb1 15.669459 12.365845
LeftHandIndex1 16.236426 40.763731
LeftHandPinky1 13.692454 45.901164
RightShoulderDummy -0.025707 0.010354 0.049288 -0.753118 -1.734761 0.873372
RightShoulder 7.776696 3.862676 21.597047
RightArm -53.354366 50.486800 -1.711875
RightForeArm 116.098052
RightForeArmRoll 7.755387
RightHand -17.449186 -16.442440 12.655984
RightHandThumb1 -1.366519 13.743465
RightHandIndex1 14.011122 59.492420
RightHandPinky1 19.297369 69.127621
LeftUpLeg 14.456664 11.544559 -8.335408
LeftLeg 30.750836
LeftFoot 0.401289 -0.603201 -0.286899 -11.940345 12.705738 -8.547778
LeftToeBase -1.750097
RightUpLeg 10.900945 12.450462 -7.722667
RightLeg 36.354553
RightFoot -0.383418 0.247911 0.099853 -1.488834 4.679065 -23.460384
RightToeBase -0.744447
6
root 52.668314 0.133076 51.842269 -5.987605 4.654967 -129.015853
Spine 6.817883 -1.268767 -0.738952
Spine1 1.888353 1.078578 -1.608840
Spine2 0.624057 -2.744093 -1.936770
NeckDummy 0.002359 -0.012552 -0.014332 -0.749789 1.695166 -0.786807
Neck 24.393913 5.115375 29.988813
Head -0.291216 0.400766 0.120483 -32.912092 -3.857205 -0.618142
LeftShoulderDummy -0.068892 -0.017124 0.010427 -0.712483 1.555236 -0.587385
LeftShoulder 11.493345 -3.923775 18.761486
LeftArm -1.627348 43.059564 13.452486
LeftForeArm 92.377300
LeftForeArmRoll -28.492254
LeftHand -8.970130 2.490129 -2.924672
LeftHandThumb1 15.546254 12.537194
LeftHandIndex1 16.405761 40.522785
LeftHandPinky1 14.320369 45.807360
RightShoulderDummy -0.025616 0.011026 0.049497 -0.767394 -1.723680 0.876034
RightShoulder 7.803938 3.866481 21.557843
RightArm -53.341474 50.537714 -1.737448
RightForeArm 116.070928
RightForeArmRoll 7.679168
RightHand -17.444927 -16.210680 12.648802
RightHandThumb1 -1.430785 13.654104
RightHandIndex1 13.845868 58.758363
RightHandPinky1 19.179940 68.860312
LeftUpLeg 14.846488 11.424357 -8.349106
LeftLeg 30.743703
LeftFoot 0.398931 -0.604249 -0.294866 -11.802110 12.421046 -8.714555
LeftToeBase -1.765861
RightUpLeg 10.951597 12.667518 -7.740526
RightLeg 36.222363
RightFoot -0.395701 0.252473 0.102765 -1.602364 4.551408 -23.350126
RightToeBase -0.688890
7
root 52.607524 0.142288 51.904828 -5.919416 4.683067 -129.087539
Spine 6.803658 -1.285369 -0.709071
Spine1 1.885237 1.066271 -1.538004
Spine2 0.612854 -2.714177 -1.908365
NeckDummy 0.001957 -0.013249 -0.013953 -0.741526 1.670853 -0.773323
Neck 24.410817 5.107817 30.110551
Head -0.293403 0.398887 0.121879 -32.967314 -3.873942 -0.651688
LeftShoulderDummy -0.067972 -0.017286 0.011074 -0.704111 1.531233 -0.577071
LeftShoulder 11.480782 -3.927207 18.716685
LeftArm -1.610963 43.025153 13.387438
LeftForeArm 92.331571
LeftForeArmRoll -28.349817
LeftHand -8.983259 2.430142 -2.867934
LeftHandThumb1 15.564400 12.536901
LeftHandIndex1 16.400059 40.824993
LeftHandPinky1 14.246450 46.003615
RightShoulderDummy -0.025898 0.010340 0.049013 -0.759528 -1.698543 0.860966
RightShoulder 7.801547 3.914033 21.546096
RightArm -53.361374 50.584679 -1.806714
RightForeArm 116.036194
RightForeArmRoll 7.566398
RightHand -17.523790 -16.356081 12.567096
RightHandThumb1 -1.407678 13.872195
RightHandIndex1 14.073366 59.347561
RightHandPinky1 19.312962 69.039510
LeftUpLeg 15.442130 11.394263 -8.367801
LeftLeg 30.754726
LeftFoot 0.408041 -0.607519 -0.312258 -11.563379 11.971860 -8.875572
LeftToeBase -1.775059
RightUpLeg 10.869766 12.805312 -7.765969
RightLeg 36.118405
RightFoot -0.396934 0.254441 0.098720 -1.626851 4.547035 -23.253970
RightToeBase -0.641386
8
root 52.547421 0.147909 51.968886 -5.847233 4.674415 -129.092737
Spine 6.799555 -1.240265 -0.719110
Spine1 1.874362 1.079132 -1.552751
Spine2 0.593440 -2.772654 -1.841338
NeckDummy 0.001733 -0.010568 -0.013160 -0.750079 1.628095 -0.783328
Neck 24.336334 5.164260 30.191358
Head -0.293769 0.396461 0.122946 -32.944663 -3.893324 -0.616403
LeftShoulderDummy -0.067321 -0.014693 0.013072 -0.712684 1.490088 -0.593144
LeftShoulder 11.543933 -3.939331 18.763881
LeftArm -1.505148 42.868717 13.422774
LeftForeArm 92.325202
LeftForeArmRoll -28.220332
LeftHand -8.985346 2.538053 -2.843729
LeftHandThumb1 15.374259 12.419585
LeftHandIndex1 16.371713 40.775087
LeftHandPinky1 14.968023 45.856310
RightShoulderDummy -0.026502 0.013258 0.049313 -0.768113 -1.656051 0.871478
RightShoulder 7.839569 3.869112 21.505536
RightArm -53.369373 50.559631 -1.897896
RightForeArm 116.050897
RightForeArmRoll 7.512767
RightHand -17.529605 -16.167641 12.531287
RightHandThumb1 -1.516505 13.691679
RightHandIndex1 14.066378 59.143729
RightHandPinky1 19.426856 68.953248
LeftUpLeg 15.723377 11.333411 -8.432695
LeftLeg 30.806600
LeftFoot 0.419164 -0.606628 -0.321901 -11.476532 11.790423 -9.041153
LeftToeBase -1.702221
RightUpLeg 10.850509 12.920264 -7.763282
RightLeg 35.961015
RightFoot -0.394935 0.247881 0.096810 -1.688284 4.537524 -23.091759
RightToeBase -0.728275
